<svg width="249" height="45" viewBox="0 0 249 45" fill="none" xmlns="http://www.w3.org/2000/svg">
<rect x="0.5" y="0.5" width="224" height="44" rx="22" stroke="white"/>
<path d="M33.856 21.77V23.73H26.254V21.77H33.856ZM28.046 22.75L27.346 27.09L26.24 25.83H34.304V28H24.7L25.512 22.75L24.7 17.5H34.234V19.67H26.24L27.346 18.41L28.046 22.75ZM34.8655 28L38.6035 23.506V24.36L35.0895 20.02H37.9875L40.3675 22.904H39.5415L41.9215 20.02H44.7635L41.1515 24.402L41.0255 23.282L44.9875 28H42.0335L39.4575 24.906H40.3255L37.7775 28H34.8655ZM45.6623 20.02H48.2523V22.428L48.1543 22.764V24.836L48.2523 25.452V30.31H45.6623V20.02ZM47.3983 24.01C47.5383 23.1513 47.8043 22.4093 48.1963 21.784C48.5883 21.1587 49.0829 20.6733 49.6803 20.328C50.2869 19.9733 50.9589 19.796 51.6963 19.796C52.4803 19.796 53.1663 19.9733 53.7543 20.328C54.3516 20.6827 54.8183 21.1773 55.1543 21.812C55.4903 22.4373 55.6583 23.17 55.6583 24.01C55.6583 24.85 55.4903 25.5873 55.1543 26.222C54.8183 26.8473 54.3516 27.3373 53.7543 27.692C53.1663 28.0467 52.4803 28.224 51.6963 28.224C50.9496 28.224 50.2776 28.0513 49.6803 27.706C49.0923 27.3513 48.6023 26.8613 48.2103 26.236C47.8183 25.6013 47.5476 24.8593 47.3983 24.01ZM53.0263 24.01C53.0263 23.5807 52.9376 23.2027 52.7603 22.876C52.5829 22.54 52.3356 22.2787 52.0183 22.092C51.7103 21.896 51.3556 21.798 50.9543 21.798C50.5436 21.798 50.1516 21.896 49.7783 22.092C49.4049 22.2787 49.0783 22.54 48.7983 22.876C48.5276 23.2027 48.3176 23.5807 48.1683 24.01C48.3176 24.4393 48.5276 24.822 48.7983 25.158C49.0783 25.4847 49.4049 25.746 49.7783 25.942C50.1516 26.1287 50.5436 26.222 50.9543 26.222C51.3556 26.222 51.7103 26.1287 52.0183 25.942C52.3356 25.746 52.5829 25.4847 52.7603 25.158C52.9376 24.822 53.0263 24.4393 53.0263 24.01ZM56.9689 17.22H59.5589V28H56.9689V17.22ZM65.8825 28.224C64.8745 28.224 63.9925 28.0467 63.2365 27.692C62.4805 27.3373 61.8925 26.8427 61.4725 26.208C61.0525 25.5733 60.8425 24.8407 60.8425 24.01C60.8425 23.17 61.0525 22.4373 61.4725 21.812C61.8925 21.1773 62.4805 20.6827 63.2365 20.328C64.0019 19.9733 64.8839 19.796 65.8825 19.796C66.8905 19.796 67.7725 19.9733 68.5285 20.328C69.2939 20.6827 69.8865 21.1773 70.3065 21.812C70.7265 22.4373 70.9365 23.17 70.9365 24.01C70.9365 24.85 70.7265 25.5873 70.3065 26.222C69.8865 26.8473 69.2939 27.3373 68.5285 27.692C67.7725 28.0467 66.8905 28.224 65.8825 28.224ZM65.8825 26.264C66.3959 26.264 66.8299 26.1753 67.1845 25.998C67.5485 25.8113 67.8239 25.55 68.0105 25.214C68.2065 24.878 68.3045 24.4767 68.3045 24.01C68.3045 23.5433 68.2065 23.142 68.0105 22.806C67.8239 22.47 67.5485 22.2133 67.1845 22.036C66.8299 21.8493 66.3959 21.756 65.8825 21.756C65.3879 21.756 64.9585 21.8493 64.5945 22.036C64.2305 22.2133 63.9505 22.47 63.7545 22.806C63.5585 23.142 63.4605 23.5433 63.4605 24.01C63.4605 24.4767 63.5585 24.878 63.7545 25.214C63.9505 25.55 64.2305 25.8113 64.5945 25.998C64.9585 26.1753 65.3879 26.264 65.8825 26.264ZM71.8077 20.02H74.4397L74.9157 22.89V28H72.3117V22.68L71.8077 20.02ZM78.7237 19.908V22.148C78.4717 22.092 78.2197 22.05 77.9677 22.022C77.725 21.994 77.501 21.98 77.2957 21.98C76.8477 21.98 76.4417 22.0733 76.0777 22.26C75.723 22.4373 75.4384 22.722 75.2237 23.114C75.0184 23.506 74.9157 24.0147 74.9157 24.64L74.3977 23.996C74.463 23.4267 74.5704 22.89 74.7197 22.386C74.869 21.882 75.0744 21.4387 75.3357 21.056C75.597 20.664 75.919 20.356 76.3017 20.132C76.6937 19.908 77.165 19.796 77.7157 19.796C77.8744 19.796 78.0424 19.8053 78.2197 19.824C78.397 19.8427 78.565 19.8707 78.7237 19.908ZM84.1192 28.224C83.1672 28.224 82.3132 28.0467 81.5572 27.692C80.8105 27.3373 80.2225 26.8427 79.7932 26.208C79.3638 25.5733 79.1492 24.8313 79.1492 23.982C79.1492 23.1513 79.3545 22.4233 79.7652 21.798C80.1758 21.1727 80.7405 20.6827 81.4592 20.328C82.1872 19.9733 83.0085 19.796 83.9232 19.796C84.8565 19.796 85.6592 20.0013 86.3312 20.412C87.0032 20.8227 87.5212 21.4013 87.8852 22.148C88.2492 22.8947 88.4312 23.772 88.4312 24.78H81.2352V23.142H87.0032L86.0652 23.73C86.0372 23.2913 85.9298 22.9227 85.7432 22.624C85.5658 22.316 85.3278 22.0827 85.0292 21.924C84.7305 21.756 84.3758 21.672 83.9652 21.672C83.5172 21.672 83.1298 21.7607 82.8032 21.938C82.4765 22.1153 82.2198 22.3627 82.0332 22.68C81.8558 22.9973 81.7672 23.366 81.7672 23.786C81.7672 24.318 81.8838 24.7707 82.1172 25.144C82.3598 25.5173 82.7052 25.802 83.1532 25.998C83.6105 26.194 84.1658 26.292 84.8192 26.292C85.4165 26.292 86.0138 26.2127 86.6112 26.054C87.2085 25.886 87.7452 25.6527 88.2212 25.354V27.048C87.6798 27.4213 87.0592 27.7107 86.3592 27.916C85.6685 28.1213 84.9218 28.224 84.1192 28.224ZM99.1341 28.224C97.9021 28.224 96.8194 27.9953 95.8861 27.538C94.9621 27.0807 94.2434 26.4413 93.7301 25.62C93.2167 24.7987 92.9601 23.842 92.9601 22.75C92.9601 21.658 93.2167 20.7013 93.7301 19.88C94.2434 19.0587 94.9621 18.4193 95.8861 17.962C96.8194 17.5047 97.9021 17.276 99.1341 17.276C100.366 17.276 101.444 17.5047 102.368 17.962C103.301 18.4193 104.025 19.0587 104.538 19.88C105.061 20.7013 105.322 21.658 105.322 22.75C105.322 23.842 105.061 24.7987 104.538 25.62C104.025 26.4413 103.301 27.0807 102.368 27.538C101.444 27.9953 100.366 28.224 99.1341 28.224ZM99.1341 25.858C99.8621 25.858 100.487 25.7367 101.01 25.494C101.533 25.242 101.934 24.8827 102.214 24.416C102.503 23.9493 102.648 23.394 102.648 22.75C102.648 22.106 102.503 21.5507 102.214 21.084C101.934 20.6173 101.533 20.2627 101.01 20.02C100.487 19.768 99.8621 19.642 99.1341 19.642C98.4154 19.642 97.7947 19.768 97.2721 20.02C96.7494 20.2627 96.3434 20.6173 96.0541 21.084C95.7647 21.5507 95.6201 22.106 95.6201 22.75C95.6201 23.394 95.7647 23.9493 96.0541 24.416C96.3434 24.8827 96.7494 25.242 97.2721 25.494C97.7947 25.7367 98.4154 25.858 99.1341 25.858ZM110.082 28.21C109.335 28.21 108.701 28.0607 108.178 27.762C107.655 27.454 107.254 27.02 106.974 26.46C106.703 25.9 106.568 25.2373 106.568 24.472V20.02H109.172V24.094C109.172 24.738 109.326 25.2327 109.634 25.578C109.942 25.9233 110.385 26.096 110.964 26.096C111.393 26.096 111.757 26.0073 112.056 25.83C112.355 25.6527 112.583 25.396 112.742 25.06C112.91 24.724 112.994 24.3273 112.994 23.87L113.806 24.304C113.713 25.144 113.489 25.858 113.134 26.446C112.789 27.0247 112.35 27.4633 111.818 27.762C111.295 28.0607 110.717 28.21 110.082 28.21ZM113.498 28L112.994 24.892V20.02H115.598V25.284L116.102 28H113.498ZM117.021 20.02H119.653L120.129 22.89V28H117.525V22.68L117.021 20.02ZM123.937 19.908V22.148C123.685 22.092 123.433 22.05 123.181 22.022C122.938 21.994 122.714 21.98 122.509 21.98C122.061 21.98 121.655 22.0733 121.291 22.26C120.936 22.4373 120.651 22.722 120.437 23.114C120.231 23.506 120.129 24.0147 120.129 24.64L119.611 23.996C119.676 23.4267 119.783 22.89 119.933 22.386C120.082 21.882 120.287 21.4387 120.549 21.056C120.81 20.664 121.132 20.356 121.515 20.132C121.907 19.908 122.378 19.796 122.929 19.796C123.087 19.796 123.255 19.8053 123.433 19.824C123.61 19.8427 123.778 19.8707 123.937 19.908ZM134.137 17.5C134.995 17.5 135.733 17.6493 136.349 17.948C136.974 18.2373 137.45 18.648 137.777 19.18C138.113 19.712 138.281 20.3327 138.281 21.042C138.281 21.7513 138.113 22.372 137.777 22.904C137.45 23.436 136.974 23.8513 136.349 24.15C135.733 24.4393 134.995 24.584 134.137 24.584H129.545V22.442H133.997C134.501 22.442 134.897 22.3207 135.187 22.078C135.476 21.826 135.621 21.4807 135.621 21.042C135.621 20.6033 135.476 20.2627 135.187 20.02C134.897 19.768 134.501 19.642 133.997 19.642H129.783L130.973 18.41V28H128.327V17.5H134.137ZM139.032 20.02H141.664L142.14 22.89V28H139.536V22.68L139.032 20.02ZM145.948 19.908V22.148C145.696 22.092 145.444 22.05 145.192 22.022C144.95 21.994 144.726 21.98 144.52 21.98C144.072 21.98 143.666 22.0733 143.302 22.26C142.948 22.4373 142.663 22.722 142.448 23.114C142.243 23.506 142.14 24.0147 142.14 24.64L141.622 23.996C141.688 23.4267 141.795 22.89 141.944 22.386C142.094 21.882 142.299 21.4387 142.56 21.056C142.822 20.664 143.144 20.356 143.526 20.132C143.918 19.908 144.39 19.796 144.94 19.796C145.099 19.796 145.267 19.8053 145.444 19.824C145.622 19.8427 145.79 19.8707 145.948 19.908ZM151.414 28.224C150.406 28.224 149.524 28.0467 148.768 27.692C148.012 27.3373 147.424 26.8427 147.004 26.208C146.584 25.5733 146.374 24.8407 146.374 24.01C146.374 23.17 146.584 22.4373 147.004 21.812C147.424 21.1773 148.012 20.6827 148.768 20.328C149.533 19.9733 150.415 19.796 151.414 19.796C152.422 19.796 153.304 19.9733 154.06 20.328C154.825 20.6827 155.418 21.1773 155.838 21.812C156.258 22.4373 156.468 23.17 156.468 24.01C156.468 24.85 156.258 25.5873 155.838 26.222C155.418 26.8473 154.825 27.3373 154.06 27.692C153.304 28.0467 152.422 28.224 151.414 28.224ZM151.414 26.264C151.927 26.264 152.361 26.1753 152.716 25.998C153.08 25.8113 153.355 25.55 153.542 25.214C153.738 24.878 153.836 24.4767 153.836 24.01C153.836 23.5433 153.738 23.142 153.542 22.806C153.355 22.47 153.08 22.2133 152.716 22.036C152.361 21.8493 151.927 21.756 151.414 21.756C150.919 21.756 150.49 21.8493 150.126 22.036C149.762 22.2133 149.482 22.47 149.286 22.806C149.09 23.142 148.992 23.5433 148.992 24.01C148.992 24.4767 149.09 24.878 149.286 25.214C149.482 25.55 149.762 25.8113 150.126 25.998C150.49 26.1753 150.919 26.264 151.414 26.264ZM157.758 19.908L159.046 20.174L160.348 19.908V30.31H157.758V19.908ZM159.06 19.18C158.603 19.18 158.229 19.0633 157.94 18.83C157.651 18.5873 157.506 18.27 157.506 17.878C157.506 17.4767 157.651 17.1593 157.94 16.926C158.229 16.6927 158.603 16.576 159.06 16.576C159.527 16.576 159.9 16.6927 160.18 16.926C160.46 17.1593 160.6 17.4767 160.6 17.878C160.6 18.27 160.46 18.5873 160.18 18.83C159.9 19.0633 159.527 19.18 159.06 19.18ZM166.602 28.224C165.65 28.224 164.796 28.0467 164.04 27.692C163.293 27.3373 162.705 26.8427 162.276 26.208C161.846 25.5733 161.632 24.8313 161.632 23.982C161.632 23.1513 161.837 22.4233 162.248 21.798C162.658 21.1727 163.223 20.6827 163.942 20.328C164.67 19.9733 165.491 19.796 166.406 19.796C167.339 19.796 168.142 20.0013 168.814 20.412C169.486 20.8227 170.004 21.4013 170.368 22.148C170.732 22.8947 170.914 23.772 170.914 24.78H163.718V23.142H169.486L168.548 23.73C168.52 23.2913 168.412 22.9227 168.226 22.624C168.048 22.316 167.81 22.0827 167.512 21.924C167.213 21.756 166.858 21.672 166.448 21.672C166 21.672 165.612 21.7607 165.286 21.938C164.959 22.1153 164.702 22.3627 164.516 22.68C164.338 22.9973 164.25 23.366 164.25 23.786C164.25 24.318 164.366 24.7707 164.6 25.144C164.842 25.5173 165.188 25.802 165.636 25.998C166.093 26.194 166.648 26.292 167.302 26.292C167.899 26.292 168.496 26.2127 169.094 26.054C169.691 25.886 170.228 25.6527 170.704 25.354V27.048C170.162 27.4213 169.542 27.7107 168.842 27.916C168.151 28.1213 167.404 28.224 166.602 28.224ZM181.533 24.682C181.458 25.382 181.197 25.998 180.749 26.53C180.31 27.062 179.741 27.4773 179.041 27.776C178.35 28.0747 177.571 28.224 176.703 28.224C175.742 28.224 174.892 28.0467 174.155 27.692C173.418 27.3373 172.844 26.8427 172.433 26.208C172.022 25.5733 171.817 24.8407 171.817 24.01C171.817 23.1793 172.022 22.4467 172.433 21.812C172.844 21.1773 173.418 20.6827 174.155 20.328C174.892 19.9733 175.742 19.796 176.703 19.796C177.571 19.796 178.35 19.9453 179.041 20.244C179.741 20.5427 180.31 20.958 180.749 21.49C181.197 22.0127 181.458 22.6287 181.533 23.338H178.943C178.84 22.8247 178.584 22.4327 178.173 22.162C177.772 21.8913 177.282 21.756 176.703 21.756C176.246 21.756 175.844 21.8447 175.499 22.022C175.163 22.1993 174.902 22.456 174.715 22.792C174.528 23.128 174.435 23.534 174.435 24.01C174.435 24.486 174.528 24.892 174.715 25.228C174.902 25.564 175.163 25.8207 175.499 25.998C175.844 26.1753 176.246 26.264 176.703 26.264C177.291 26.264 177.786 26.124 178.187 25.844C178.588 25.5547 178.84 25.1673 178.943 24.682H181.533ZM181.871 21.952V20.818L183.523 20.216L184.643 17.892H186.127V20.02H189.571V21.952H186.127V24.584C186.127 25.1813 186.248 25.6013 186.491 25.844C186.733 26.0773 187.167 26.194 187.793 26.194C188.194 26.194 188.544 26.1613 188.843 26.096C189.151 26.0213 189.44 25.9233 189.711 25.802V27.776C189.431 27.888 189.062 27.9907 188.605 28.084C188.157 28.1773 187.69 28.224 187.205 28.224C186.355 28.224 185.655 28.0887 185.105 27.818C184.563 27.5473 184.162 27.1693 183.901 26.684C183.649 26.1893 183.523 25.6107 183.523 24.948V21.952H181.871ZM199.859 25.438C199.859 26.0353 199.682 26.544 199.327 26.964C198.982 27.3747 198.473 27.6873 197.801 27.902C197.129 28.1167 196.313 28.224 195.351 28.224C194.371 28.224 193.513 28.1027 192.775 27.86C192.038 27.6173 191.464 27.2767 191.053 26.838C190.643 26.3993 190.423 25.8907 190.395 25.312H193.041C193.097 25.5453 193.228 25.7507 193.433 25.928C193.648 26.1053 193.923 26.2407 194.259 26.334C194.595 26.418 194.992 26.46 195.449 26.46C196.065 26.46 196.532 26.3947 196.849 26.264C197.167 26.1333 197.325 25.9373 197.325 25.676C197.325 25.48 197.209 25.3307 196.975 25.228C196.751 25.1253 196.345 25.0507 195.757 25.004L194.301 24.892C193.387 24.8267 192.659 24.682 192.117 24.458C191.576 24.234 191.189 23.9493 190.955 23.604C190.731 23.2587 190.619 22.8713 190.619 22.442C190.619 21.854 190.801 21.364 191.165 20.972C191.539 20.58 192.052 20.286 192.705 20.09C193.359 19.894 194.124 19.796 195.001 19.796C195.879 19.796 196.658 19.9127 197.339 20.146C198.03 20.3793 198.581 20.7013 198.991 21.112C199.411 21.5227 199.649 22.0033 199.705 22.554H197.059C197.022 22.3673 196.919 22.1947 196.751 22.036C196.593 21.8773 196.359 21.7513 196.051 21.658C195.753 21.5553 195.361 21.504 194.875 21.504C194.325 21.504 193.905 21.5647 193.615 21.686C193.326 21.8073 193.181 21.9847 193.181 22.218C193.181 22.3953 193.27 22.5353 193.447 22.638C193.625 22.7407 193.961 22.8153 194.455 22.862L196.345 23.002C197.241 23.0767 197.941 23.2213 198.445 23.436C198.959 23.6413 199.323 23.912 199.537 24.248C199.752 24.584 199.859 24.9807 199.859 25.438Z" fill="white"/>
<rect x="205" y="0.5" width="44" height="44" rx="22" fill="#B62A20"/>
<path d="M232 17.5L222 27.5M232 17.5H223M232 17.5V26.5" stroke="white" stroke-width="1.5" stroke-linecap="round" stroke-linejoin="round"/>
</svg>
