<svg width="250" height="46" viewBox="0 0 250 46" fill="none" xmlns="http://www.w3.org/2000/svg">
<rect x="0.992188" y="1" width="224" height="44" rx="22" stroke="#B62A20"/>
<path d="M34.3482 22.27V24.23H26.7462V22.27H34.3482ZM28.5382 23.25L27.8382 27.59L26.7322 26.33H34.7962V28.5H25.1922L26.0042 23.25L25.1922 18H34.7262V20.17H26.7322L27.8382 18.91L28.5382 23.25ZM35.3577 28.5L39.0957 24.006V24.86L35.5817 20.52H38.4797L40.8597 23.404H40.0337L42.4137 20.52H45.2557L41.6437 24.902L41.5177 23.782L45.4797 28.5H42.5257L39.9497 25.406H40.8177L38.2697 28.5H35.3577ZM46.1545 20.52H48.7445V22.928L48.6465 23.264V25.336L48.7445 25.952V30.81H46.1545V20.52ZM47.8905 24.51C48.0305 23.6513 48.2965 22.9093 48.6885 22.284C49.0805 21.6587 49.5751 21.1733 50.1725 20.828C50.7791 20.4733 51.4511 20.296 52.1885 20.296C52.9725 20.296 53.6585 20.4733 54.2465 20.828C54.8438 21.1827 55.3105 21.6773 55.6465 22.312C55.9825 22.9373 56.1505 23.67 56.1505 24.51C56.1505 25.35 55.9825 26.0873 55.6465 26.722C55.3105 27.3473 54.8438 27.8373 54.2465 28.192C53.6585 28.5467 52.9725 28.724 52.1885 28.724C51.4418 28.724 50.7698 28.5513 50.1725 28.206C49.5845 27.8513 49.0945 27.3613 48.7025 26.736C48.3105 26.1013 48.0398 25.3593 47.8905 24.51ZM53.5185 24.51C53.5185 24.0807 53.4298 23.7027 53.2525 23.376C53.0751 23.04 52.8278 22.7787 52.5105 22.592C52.2025 22.396 51.8478 22.298 51.4465 22.298C51.0358 22.298 50.6438 22.396 50.2705 22.592C49.8971 22.7787 49.5705 23.04 49.2905 23.376C49.0198 23.7027 48.8098 24.0807 48.6605 24.51C48.8098 24.9393 49.0198 25.322 49.2905 25.658C49.5705 25.9847 49.8971 26.246 50.2705 26.442C50.6438 26.6287 51.0358 26.722 51.4465 26.722C51.8478 26.722 52.2025 26.6287 52.5105 26.442C52.8278 26.246 53.0751 25.9847 53.2525 25.658C53.4298 25.322 53.5185 24.9393 53.5185 24.51ZM57.4611 17.72H60.0511V28.5H57.4611V17.72ZM66.3747 28.724C65.3667 28.724 64.4847 28.5467 63.7287 28.192C62.9727 27.8373 62.3847 27.3427 61.9647 26.708C61.5447 26.0733 61.3347 25.3407 61.3347 24.51C61.3347 23.67 61.5447 22.9373 61.9647 22.312C62.3847 21.6773 62.9727 21.1827 63.7287 20.828C64.4941 20.4733 65.3761 20.296 66.3747 20.296C67.3827 20.296 68.2647 20.4733 69.0207 20.828C69.7861 21.1827 70.3787 21.6773 70.7987 22.312C71.2187 22.9373 71.4287 23.67 71.4287 24.51C71.4287 25.35 71.2187 26.0873 70.7987 26.722C70.3787 27.3473 69.7861 27.8373 69.0207 28.192C68.2647 28.5467 67.3827 28.724 66.3747 28.724ZM66.3747 26.764C66.8881 26.764 67.3221 26.6753 67.6767 26.498C68.0407 26.3113 68.3161 26.05 68.5027 25.714C68.6987 25.378 68.7967 24.9767 68.7967 24.51C68.7967 24.0433 68.6987 23.642 68.5027 23.306C68.3161 22.97 68.0407 22.7133 67.6767 22.536C67.3221 22.3493 66.8881 22.256 66.3747 22.256C65.8801 22.256 65.4507 22.3493 65.0867 22.536C64.7227 22.7133 64.4427 22.97 64.2467 23.306C64.0507 23.642 63.9527 24.0433 63.9527 24.51C63.9527 24.9767 64.0507 25.378 64.2467 25.714C64.4427 26.05 64.7227 26.3113 65.0867 26.498C65.4507 26.6753 65.8801 26.764 66.3747 26.764ZM72.2999 20.52H74.9319L75.4079 23.39V28.5H72.8039V23.18L72.2999 20.52ZM79.2159 20.408V22.648C78.9639 22.592 78.7119 22.55 78.4599 22.522C78.2172 22.494 77.9932 22.48 77.7879 22.48C77.3399 22.48 76.9339 22.5733 76.5699 22.76C76.2152 22.9373 75.9306 23.222 75.7159 23.614C75.5106 24.006 75.4079 24.5147 75.4079 25.14L74.8899 24.496C74.9552 23.9267 75.0626 23.39 75.2119 22.886C75.3612 22.382 75.5666 21.9387 75.8279 21.556C76.0892 21.164 76.4112 20.856 76.7939 20.632C77.1859 20.408 77.6572 20.296 78.2079 20.296C78.3666 20.296 78.5346 20.3053 78.7119 20.324C78.8892 20.3427 79.0572 20.3707 79.2159 20.408ZM84.6114 28.724C83.6594 28.724 82.8054 28.5467 82.0494 28.192C81.3027 27.8373 80.7147 27.3427 80.2854 26.708C79.856 26.0733 79.6414 25.3313 79.6414 24.482C79.6414 23.6513 79.8467 22.9233 80.2574 22.298C80.668 21.6727 81.2327 21.1827 81.9514 20.828C82.6794 20.4733 83.5007 20.296 84.4154 20.296C85.3487 20.296 86.1514 20.5013 86.8234 20.912C87.4954 21.3227 88.0134 21.9013 88.3774 22.648C88.7414 23.3947 88.9234 24.272 88.9234 25.28H81.7274V23.642H87.4954L86.5574 24.23C86.5294 23.7913 86.422 23.4227 86.2354 23.124C86.058 22.816 85.82 22.5827 85.5214 22.424C85.2227 22.256 84.868 22.172 84.4574 22.172C84.0094 22.172 83.622 22.2607 83.2954 22.438C82.9687 22.6153 82.712 22.8627 82.5254 23.18C82.348 23.4973 82.2594 23.866 82.2594 24.286C82.2594 24.818 82.376 25.2707 82.6094 25.644C82.852 26.0173 83.1974 26.302 83.6454 26.498C84.1027 26.694 84.658 26.792 85.3114 26.792C85.9087 26.792 86.506 26.7127 87.1034 26.554C87.7007 26.386 88.2374 26.1527 88.7134 25.854V27.548C88.172 27.9213 87.5514 28.2107 86.8514 28.416C86.1607 28.6213 85.414 28.724 84.6114 28.724ZM99.6263 28.724C98.3943 28.724 97.3116 28.4953 96.3783 28.038C95.4543 27.5807 94.7356 26.9413 94.2223 26.12C93.7089 25.2987 93.4523 24.342 93.4523 23.25C93.4523 22.158 93.7089 21.2013 94.2223 20.38C94.7356 19.5587 95.4543 18.9193 96.3783 18.462C97.3116 18.0047 98.3943 17.776 99.6263 17.776C100.858 17.776 101.936 18.0047 102.86 18.462C103.794 18.9193 104.517 19.5587 105.03 20.38C105.553 21.2013 105.814 22.158 105.814 23.25C105.814 24.342 105.553 25.2987 105.03 26.12C104.517 26.9413 103.794 27.5807 102.86 28.038C101.936 28.4953 100.858 28.724 99.6263 28.724ZM99.6263 26.358C100.354 26.358 100.98 26.2367 101.502 25.994C102.025 25.742 102.426 25.3827 102.706 24.916C102.996 24.4493 103.14 23.894 103.14 23.25C103.14 22.606 102.996 22.0507 102.706 21.584C102.426 21.1173 102.025 20.7627 101.502 20.52C100.98 20.268 100.354 20.142 99.6263 20.142C98.9076 20.142 98.2869 20.268 97.7643 20.52C97.2416 20.7627 96.8356 21.1173 96.5463 21.584C96.2569 22.0507 96.1123 22.606 96.1123 23.25C96.1123 23.894 96.2569 24.4493 96.5463 24.916C96.8356 25.3827 97.2416 25.742 97.7643 25.994C98.2869 26.2367 98.9076 26.358 99.6263 26.358ZM110.574 28.71C109.827 28.71 109.193 28.5607 108.67 28.262C108.147 27.954 107.746 27.52 107.466 26.96C107.195 26.4 107.06 25.7373 107.06 24.972V20.52H109.664V24.594C109.664 25.238 109.818 25.7327 110.126 26.078C110.434 26.4233 110.877 26.596 111.456 26.596C111.885 26.596 112.249 26.5073 112.548 26.33C112.847 26.1527 113.075 25.896 113.234 25.56C113.402 25.224 113.486 24.8273 113.486 24.37L114.298 24.804C114.205 25.644 113.981 26.358 113.626 26.946C113.281 27.5247 112.842 27.9633 112.31 28.262C111.787 28.5607 111.209 28.71 110.574 28.71ZM113.99 28.5L113.486 25.392V20.52H116.09V25.784L116.594 28.5H113.99ZM117.513 20.52H120.145L120.621 23.39V28.5H118.017V23.18L117.513 20.52ZM124.429 20.408V22.648C124.177 22.592 123.925 22.55 123.673 22.522C123.43 22.494 123.206 22.48 123.001 22.48C122.553 22.48 122.147 22.5733 121.783 22.76C121.428 22.9373 121.143 23.222 120.929 23.614C120.723 24.006 120.621 24.5147 120.621 25.14L120.103 24.496C120.168 23.9267 120.275 23.39 120.425 22.886C120.574 22.382 120.779 21.9387 121.041 21.556C121.302 21.164 121.624 20.856 122.007 20.632C122.399 20.408 122.87 20.296 123.421 20.296C123.579 20.296 123.747 20.3053 123.925 20.324C124.102 20.3427 124.27 20.3707 124.429 20.408ZM134.629 18C135.488 18 136.225 18.1493 136.841 18.448C137.466 18.7373 137.942 19.148 138.269 19.68C138.605 20.212 138.773 20.8327 138.773 21.542C138.773 22.2513 138.605 22.872 138.269 23.404C137.942 23.936 137.466 24.3513 136.841 24.65C136.225 24.9393 135.488 25.084 134.629 25.084H130.037V22.942H134.489C134.993 22.942 135.39 22.8207 135.679 22.578C135.968 22.326 136.113 21.9807 136.113 21.542C136.113 21.1033 135.968 20.7627 135.679 20.52C135.39 20.268 134.993 20.142 134.489 20.142H130.275L131.465 18.91V28.5H128.819V18H134.629ZM139.524 20.52H142.157L142.633 23.39V28.5H140.029V23.18L139.524 20.52ZM146.441 20.408V22.648C146.189 22.592 145.937 22.55 145.685 22.522C145.442 22.494 145.218 22.48 145.013 22.48C144.565 22.48 144.159 22.5733 143.795 22.76C143.44 22.9373 143.155 23.222 142.941 23.614C142.735 24.006 142.633 24.5147 142.633 25.14L142.115 24.496C142.18 23.9267 142.287 23.39 142.437 22.886C142.586 22.382 142.791 21.9387 143.053 21.556C143.314 21.164 143.636 20.856 144.019 20.632C144.411 20.408 144.882 20.296 145.433 20.296C145.591 20.296 145.759 20.3053 145.937 20.324C146.114 20.3427 146.282 20.3707 146.441 20.408ZM151.906 28.724C150.898 28.724 150.016 28.5467 149.26 28.192C148.504 27.8373 147.916 27.3427 147.496 26.708C147.076 26.0733 146.866 25.3407 146.866 24.51C146.866 23.67 147.076 22.9373 147.496 22.312C147.916 21.6773 148.504 21.1827 149.26 20.828C150.025 20.4733 150.907 20.296 151.906 20.296C152.914 20.296 153.796 20.4733 154.552 20.828C155.317 21.1827 155.91 21.6773 156.33 22.312C156.75 22.9373 156.96 23.67 156.96 24.51C156.96 25.35 156.75 26.0873 156.33 26.722C155.91 27.3473 155.317 27.8373 154.552 28.192C153.796 28.5467 152.914 28.724 151.906 28.724ZM151.906 26.764C152.419 26.764 152.853 26.6753 153.208 26.498C153.572 26.3113 153.847 26.05 154.034 25.714C154.23 25.378 154.328 24.9767 154.328 24.51C154.328 24.0433 154.23 23.642 154.034 23.306C153.847 22.97 153.572 22.7133 153.208 22.536C152.853 22.3493 152.419 22.256 151.906 22.256C151.411 22.256 150.982 22.3493 150.618 22.536C150.254 22.7133 149.974 22.97 149.778 23.306C149.582 23.642 149.484 24.0433 149.484 24.51C149.484 24.9767 149.582 25.378 149.778 25.714C149.974 26.05 150.254 26.3113 150.618 26.498C150.982 26.6753 151.411 26.764 151.906 26.764ZM158.25 20.408L159.538 20.674L160.84 20.408V30.81H158.25V20.408ZM159.552 19.68C159.095 19.68 158.721 19.5633 158.432 19.33C158.143 19.0873 157.998 18.77 157.998 18.378C157.998 17.9767 158.143 17.6593 158.432 17.426C158.721 17.1927 159.095 17.076 159.552 17.076C160.019 17.076 160.392 17.1927 160.672 17.426C160.952 17.6593 161.092 17.9767 161.092 18.378C161.092 18.77 160.952 19.0873 160.672 19.33C160.392 19.5633 160.019 19.68 159.552 19.68ZM167.094 28.724C166.142 28.724 165.288 28.5467 164.532 28.192C163.785 27.8373 163.197 27.3427 162.768 26.708C162.338 26.0733 162.124 25.3313 162.124 24.482C162.124 23.6513 162.329 22.9233 162.74 22.298C163.15 21.6727 163.715 21.1827 164.434 20.828C165.162 20.4733 165.983 20.296 166.898 20.296C167.831 20.296 168.634 20.5013 169.306 20.912C169.978 21.3227 170.496 21.9013 170.86 22.648C171.224 23.3947 171.406 24.272 171.406 25.28H164.21V23.642H169.978L169.04 24.23C169.012 23.7913 168.904 23.4227 168.718 23.124C168.54 22.816 168.302 22.5827 168.004 22.424C167.705 22.256 167.35 22.172 166.94 22.172C166.492 22.172 166.104 22.2607 165.778 22.438C165.451 22.6153 165.194 22.8627 165.008 23.18C164.83 23.4973 164.742 23.866 164.742 24.286C164.742 24.818 164.858 25.2707 165.092 25.644C165.334 26.0173 165.68 26.302 166.128 26.498C166.585 26.694 167.14 26.792 167.794 26.792C168.391 26.792 168.988 26.7127 169.586 26.554C170.183 26.386 170.72 26.1527 171.196 25.854V27.548C170.654 27.9213 170.034 28.2107 169.334 28.416C168.643 28.6213 167.896 28.724 167.094 28.724ZM182.025 25.182C181.951 25.882 181.689 26.498 181.241 27.03C180.803 27.562 180.233 27.9773 179.533 28.276C178.843 28.5747 178.063 28.724 177.195 28.724C176.234 28.724 175.385 28.5467 174.647 28.192C173.91 27.8373 173.336 27.3427 172.925 26.708C172.515 26.0733 172.309 25.3407 172.309 24.51C172.309 23.6793 172.515 22.9467 172.925 22.312C173.336 21.6773 173.91 21.1827 174.647 20.828C175.385 20.4733 176.234 20.296 177.195 20.296C178.063 20.296 178.843 20.4453 179.533 20.744C180.233 21.0427 180.803 21.458 181.241 21.99C181.689 22.5127 181.951 23.1287 182.025 23.838H179.435C179.333 23.3247 179.076 22.9327 178.665 22.662C178.264 22.3913 177.774 22.256 177.195 22.256C176.738 22.256 176.337 22.3447 175.991 22.522C175.655 22.6993 175.394 22.956 175.207 23.292C175.021 23.628 174.927 24.034 174.927 24.51C174.927 24.986 175.021 25.392 175.207 25.728C175.394 26.064 175.655 26.3207 175.991 26.498C176.337 26.6753 176.738 26.764 177.195 26.764C177.783 26.764 178.278 26.624 178.679 26.344C179.081 26.0547 179.333 25.6673 179.435 25.182H182.025ZM182.363 22.452V21.318L184.015 20.716L185.135 18.392H186.619V20.52H190.063V22.452H186.619V25.084C186.619 25.6813 186.74 26.1013 186.983 26.344C187.226 26.5773 187.66 26.694 188.285 26.694C188.686 26.694 189.036 26.6613 189.335 26.596C189.643 26.5213 189.932 26.4233 190.203 26.302V28.276C189.923 28.388 189.554 28.4907 189.097 28.584C188.649 28.6773 188.182 28.724 187.697 28.724C186.848 28.724 186.148 28.5887 185.597 28.318C185.056 28.0473 184.654 27.6693 184.393 27.184C184.141 26.6893 184.015 26.1107 184.015 25.448V22.452H182.363ZM200.351 25.938C200.351 26.5353 200.174 27.044 199.819 27.464C199.474 27.8747 198.965 28.1873 198.293 28.402C197.621 28.6167 196.805 28.724 195.843 28.724C194.863 28.724 194.005 28.6027 193.267 28.36C192.53 28.1173 191.956 27.7767 191.545 27.338C191.135 26.8993 190.915 26.3907 190.887 25.812H193.533C193.589 26.0453 193.72 26.2507 193.925 26.428C194.14 26.6053 194.415 26.7407 194.751 26.834C195.087 26.918 195.484 26.96 195.941 26.96C196.557 26.96 197.024 26.8947 197.341 26.764C197.659 26.6333 197.817 26.4373 197.817 26.176C197.817 25.98 197.701 25.8307 197.467 25.728C197.243 25.6253 196.837 25.5507 196.249 25.504L194.793 25.392C193.879 25.3267 193.151 25.182 192.609 24.958C192.068 24.734 191.681 24.4493 191.447 24.104C191.223 23.7587 191.111 23.3713 191.111 22.942C191.111 22.354 191.293 21.864 191.657 21.472C192.031 21.08 192.544 20.786 193.197 20.59C193.851 20.394 194.616 20.296 195.493 20.296C196.371 20.296 197.15 20.4127 197.831 20.646C198.522 20.8793 199.073 21.2013 199.483 21.612C199.903 22.0227 200.141 22.5033 200.197 23.054H197.551C197.514 22.8673 197.411 22.6947 197.243 22.536C197.085 22.3773 196.851 22.2513 196.543 22.158C196.245 22.0553 195.853 22.004 195.367 22.004C194.817 22.004 194.397 22.0647 194.107 22.186C193.818 22.3073 193.673 22.4847 193.673 22.718C193.673 22.8953 193.762 23.0353 193.939 23.138C194.117 23.2407 194.453 23.3153 194.947 23.362L196.837 23.502C197.733 23.5767 198.433 23.7213 198.937 23.936C199.451 24.1413 199.815 24.412 200.029 24.748C200.244 25.084 200.351 25.4807 200.351 25.938Z" fill="#B62A20"/>
<rect x="205.492" y="1" width="44" height="44" rx="22" fill="#B62A20"/>
<path d="M232.492 18L222.492 28M232.492 18H223.492M232.492 18V27" stroke="white" stroke-width="1.5" stroke-linecap="round" stroke-linejoin="round"/>
</svg>
