<svg width="293" height="49" viewBox="0 0 293 49" fill="none" xmlns="http://www.w3.org/2000/svg">
<g clip-path="url(#clip0_4007_292)">
<path d="M25.321 21.406C25.574 21.1277 25.7006 20.805 25.7006 20.438C25.7006 20.0711 25.5677 19.7547 25.302 19.489C25.0362 19.2232 24.7199 19.0904 24.3529 19.0904C23.986 19.0904 23.6759 19.2296 23.4229 19.5079L17.1971 25.6958L14.5777 23.0764C14.3246 22.798 14.0146 22.6588 13.6476 22.6588C13.2807 22.6588 12.9643 22.7917 12.6986 23.0574C12.4329 23.3231 12.3 23.6395 12.3 24.0064C12.3 24.3734 12.4265 24.6961 12.6796 24.9745L16.286 28.5429C16.5391 28.796 16.8491 28.9225 17.2161 28.9225C17.583 28.9225 17.8931 28.796 18.1461 28.5429L25.321 21.406ZM22.7775 6.56289C21.588 5.9555 20.329 5.65181 19.0003 5.65181C17.6716 5.65181 16.4125 5.9555 15.2231 6.56289L6.07421 11.1183C5.23905 11.5233 4.58104 12.1243 4.10018 12.9215C3.61933 13.7187 3.37891 14.5729 3.37891 15.484V28.9985C3.37891 30.441 3.73322 31.8076 4.44184 33.0984C5.15047 34.3891 6.12483 35.414 7.36492 36.1733L16.3999 41.8296C17.1844 42.3358 18.0512 42.5889 19.0003 42.5889C19.9493 42.5889 20.8161 42.3358 21.6007 41.8296L30.6356 36.1733C31.8757 35.414 32.8501 34.3891 33.5587 33.0984C34.2674 31.8076 34.6217 30.441 34.6217 28.9985V15.484C34.6217 14.5729 34.3812 13.7187 33.9004 12.9215C33.4195 12.1243 32.7615 11.5233 31.9264 11.1183L22.7775 6.56289ZM16.3999 8.9545C17.2097 8.54957 18.0765 8.34711 19.0003 8.34711C19.924 8.34711 20.7908 8.54957 21.6007 8.9545L30.7116 13.5099C31.0912 13.6871 31.3949 13.9592 31.6227 14.3261C31.8504 14.6931 31.9643 15.0917 31.9643 15.5219V28.9985C31.9643 29.9855 31.7176 30.9155 31.2241 31.7887C30.7306 32.6618 30.0662 33.3641 29.2311 33.8956L20.1961 39.5519C19.8165 39.7797 19.4179 39.8936 19.0003 39.8936C18.5827 39.8936 18.1841 39.7797 17.8045 39.5519L8.76952 33.8956C7.93435 33.3641 7.27002 32.6618 6.77651 31.7887C6.283 30.9155 6.03625 29.9855 6.03625 28.9985V15.5219C6.03625 15.0917 6.15014 14.6931 6.37791 14.3261C6.60568 13.9592 6.90938 13.6871 7.289 13.5099L16.3999 8.9545Z" fill="white"/>
</g>
<path d="M62 0L64.6942 8.2918H73.4127L66.3593 13.4164L69.0534 21.7082L62 16.5836L54.9466 21.7082L57.6407 13.4164L50.5873 8.2918H59.3058L62 0Z" fill="#B62A20"/>
<path d="M86 0L88.6942 8.2918H97.4127L90.3593 13.4164L93.0534 21.7082L86 16.5836L78.9466 21.7082L81.6407 13.4164L74.5873 8.2918H83.3058L86 0Z" fill="#B62A20"/>
<path d="M110 0L112.694 8.2918H121.413L114.359 13.4164L117.053 21.7082L110 16.5836L102.947 21.7082L105.641 13.4164L98.5873 8.2918H107.306L110 0Z" fill="#B62A20"/>
<path d="M134 0L136.694 8.2918H145.413L138.359 13.4164L141.053 21.7082L134 16.5836L126.947 21.7082L129.641 13.4164L122.587 8.2918H131.306L134 0Z" fill="#B62A20"/>
<path d="M158 0L160.694 8.2918H169.413L162.359 13.4164L165.053 21.7082L158 16.5836L150.947 21.7082L153.641 13.4164L146.587 8.2918H155.306L158 0Z" fill="#F6F6F6"/>
<path d="M54.34 36.676H56.986V46H54.34V36.676ZM50.252 35.5H61.074V37.838H50.252V35.5ZM60.8253 38.02H63.4573L63.9333 40.89V46H61.3293V40.68L60.8253 38.02ZM67.7413 37.908V40.148C67.4893 40.092 67.2373 40.05 66.9853 40.022C66.7426 39.994 66.5186 39.98 66.3133 39.98C65.8653 39.98 65.4593 40.0733 65.0953 40.26C64.7406 40.4373 64.4559 40.722 64.2413 41.114C64.0359 41.506 63.9333 42.0147 63.9333 42.64L63.4153 41.996C63.4806 41.4267 63.5879 40.89 63.7373 40.386C63.8866 39.882 64.0919 39.4387 64.3533 39.056C64.6146 38.664 64.9366 38.356 65.3193 38.132C65.7113 37.908 66.1826 37.796 66.7333 37.796C66.8919 37.796 67.0599 37.8053 67.2373 37.824C67.4146 37.8427 67.5826 37.8707 67.7413 37.908ZM72.1932 46.21C71.4465 46.21 70.8118 46.0607 70.2892 45.762C69.7665 45.454 69.3652 45.02 69.0852 44.46C68.8145 43.9 68.6792 43.2373 68.6792 42.472V38.02H71.2832V42.094C71.2832 42.738 71.4372 43.2327 71.7452 43.578C72.0532 43.9233 72.4965 44.096 73.0752 44.096C73.5045 44.096 73.8685 44.0073 74.1672 43.83C74.4658 43.6527 74.6945 43.396 74.8532 43.06C75.0212 42.724 75.1052 42.3273 75.1052 41.87L75.9172 42.304C75.8238 43.144 75.5998 43.858 75.2452 44.446C74.8998 45.0247 74.4612 45.4633 73.9292 45.762C73.4065 46.0607 72.8278 46.21 72.1932 46.21ZM75.6092 46L75.1052 42.892V38.02H77.7092V43.284L78.2132 46H75.6092ZM88.4979 43.438C88.4979 44.0353 88.3206 44.544 87.9659 44.964C87.6206 45.3747 87.1119 45.6873 86.4399 45.902C85.7679 46.1167 84.9513 46.224 83.9899 46.224C83.0099 46.224 82.1513 46.1027 81.4139 45.86C80.6766 45.6173 80.1026 45.2767 79.6919 44.838C79.2813 44.3993 79.0619 43.8907 79.0339 43.312H81.6799C81.7359 43.5453 81.8666 43.7507 82.0719 43.928C82.2866 44.1053 82.5619 44.2407 82.8979 44.334C83.2339 44.418 83.6306 44.46 84.0879 44.46C84.7039 44.46 85.1706 44.3947 85.4879 44.264C85.8053 44.1333 85.9639 43.9373 85.9639 43.676C85.9639 43.48 85.8473 43.3307 85.6139 43.228C85.3899 43.1253 84.9839 43.0507 84.3959 43.004L82.9399 42.892C82.0253 42.8267 81.2973 42.682 80.7559 42.458C80.2146 42.234 79.8273 41.9493 79.5939 41.604C79.3699 41.2587 79.2579 40.8713 79.2579 40.442C79.2579 39.854 79.4399 39.364 79.8039 38.972C80.1773 38.58 80.6906 38.286 81.3439 38.09C81.9973 37.894 82.7626 37.796 83.6399 37.796C84.5173 37.796 85.2966 37.9127 85.9779 38.146C86.6686 38.3793 87.2193 38.7013 87.6299 39.112C88.0499 39.5227 88.2879 40.0033 88.3439 40.554H85.6979C85.6606 40.3673 85.5579 40.1947 85.3899 40.036C85.2313 39.8773 84.9979 39.7513 84.6899 39.658C84.3913 39.5553 83.9993 39.504 83.5139 39.504C82.9633 39.504 82.5433 39.5647 82.2539 39.686C81.9646 39.8073 81.8199 39.9847 81.8199 40.218C81.8199 40.3953 81.9086 40.5353 82.0859 40.638C82.2633 40.7407 82.5993 40.8153 83.0939 40.862L84.9839 41.002C85.8799 41.0767 86.5799 41.2213 87.0839 41.436C87.5973 41.6413 87.9613 41.912 88.1759 42.248C88.3906 42.584 88.4979 42.9807 88.4979 43.438ZM88.9118 39.952V38.818L90.5638 38.216L91.6838 35.892H93.1678V38.02H96.6118V39.952H93.1678V42.584C93.1678 43.1813 93.2891 43.6013 93.5318 43.844C93.7745 44.0773 94.2085 44.194 94.8338 44.194C95.2351 44.194 95.5851 44.1613 95.8838 44.096C96.1918 44.0213 96.4811 43.9233 96.7518 43.802V45.776C96.4718 45.888 96.1031 45.9907 95.6458 46.084C95.1978 46.1773 94.7311 46.224 94.2458 46.224C93.3965 46.224 92.6965 46.0887 92.1458 45.818C91.6045 45.5473 91.2031 45.1693 90.9418 44.684C90.6898 44.1893 90.5638 43.6107 90.5638 42.948V39.952H88.9118ZM102.272 46.224C101.32 46.224 100.466 46.0467 99.7095 45.692C98.9628 45.3373 98.3748 44.8427 97.9455 44.208C97.5162 43.5733 97.3015 42.8313 97.3015 41.982C97.3015 41.1513 97.5068 40.4233 97.9175 39.798C98.3282 39.1727 98.8928 38.6827 99.6115 38.328C100.34 37.9733 101.161 37.796 102.076 37.796C103.009 37.796 103.812 38.0013 104.484 38.412C105.156 38.8227 105.674 39.4013 106.038 40.148C106.402 40.8947 106.584 41.772 106.584 42.78H99.3875V41.142H105.156L104.218 41.73C104.19 41.2913 104.082 40.9227 103.896 40.624C103.718 40.316 103.48 40.0827 103.182 39.924C102.883 39.756 102.528 39.672 102.118 39.672C101.67 39.672 101.282 39.7607 100.956 39.938C100.629 40.1153 100.372 40.3627 100.186 40.68C100.008 40.9973 99.9195 41.366 99.9195 41.786C99.9195 42.318 100.036 42.7707 100.27 43.144C100.512 43.5173 100.858 43.802 101.306 43.998C101.763 44.194 102.318 44.292 102.972 44.292C103.569 44.292 104.166 44.2127 104.764 44.054C105.361 43.886 105.898 43.6527 106.374 43.354V45.048C105.832 45.4213 105.212 45.7107 104.512 45.916C103.821 46.1213 103.074 46.224 102.272 46.224ZM115.173 46L114.823 42.99L115.299 42.038L114.837 40.834L115.481 35.22H118.183L117.385 41.814L117.861 46H115.173ZM115.775 42.01C115.635 42.8593 115.369 43.6013 114.977 44.236C114.585 44.8613 114.09 45.3513 113.493 45.706C112.896 46.0513 112.224 46.224 111.477 46.224C110.693 46.224 110.002 46.0467 109.405 45.692C108.817 45.3373 108.355 44.8473 108.019 44.222C107.683 43.5873 107.515 42.85 107.515 42.01C107.515 41.17 107.683 40.4373 108.019 39.812C108.355 39.1773 108.817 38.6827 109.405 38.328C110.002 37.9733 110.693 37.796 111.477 37.796C112.224 37.796 112.896 37.9733 113.493 38.328C114.09 38.6733 114.585 39.1587 114.977 39.784C115.378 40.4093 115.644 41.1513 115.775 42.01ZM110.147 42.01C110.147 42.4393 110.236 42.822 110.413 43.158C110.59 43.4847 110.833 43.746 111.141 43.942C111.458 44.1287 111.822 44.222 112.233 44.222C112.644 44.222 113.031 44.1287 113.395 43.942C113.768 43.746 114.095 43.4847 114.375 43.158C114.655 42.822 114.865 42.4393 115.005 42.01C114.865 41.5807 114.655 41.2027 114.375 40.876C114.095 40.54 113.768 40.2787 113.395 40.092C113.031 39.896 112.644 39.798 112.233 39.798C111.822 39.798 111.458 39.896 111.141 40.092C110.833 40.2787 110.59 40.54 110.413 40.876C110.236 41.2027 110.147 41.5807 110.147 42.01ZM122.863 35.22H125.453V40.442L125.103 41.128V43.004L125.453 43.676V46H122.863V35.22ZM124.585 42.01C124.725 41.1513 124.991 40.4093 125.383 39.784C125.775 39.1587 126.27 38.6733 126.867 38.328C127.465 37.9733 128.137 37.796 128.883 37.796C129.667 37.796 130.353 37.9733 130.941 38.328C131.539 38.6827 132.005 39.1773 132.341 39.812C132.677 40.4373 132.845 41.17 132.845 42.01C132.845 42.85 132.677 43.5873 132.341 44.222C132.005 44.8473 131.539 45.3373 130.941 45.692C130.353 46.0467 129.667 46.224 128.883 46.224C128.137 46.224 127.465 46.0513 126.867 45.706C126.27 45.3513 125.775 44.8613 125.383 44.236C124.991 43.6013 124.725 42.8593 124.585 42.01ZM130.213 42.01C130.213 41.5807 130.125 41.2027 129.947 40.876C129.77 40.54 129.523 40.2787 129.205 40.092C128.897 39.896 128.538 39.798 128.127 39.798C127.717 39.798 127.325 39.896 126.951 40.092C126.587 40.2787 126.265 40.54 125.985 40.876C125.715 41.2027 125.505 41.5807 125.355 42.01C125.505 42.4393 125.715 42.822 125.985 43.158C126.265 43.4847 126.587 43.746 126.951 43.942C127.325 44.1287 127.717 44.222 128.127 44.222C128.538 44.222 128.897 44.1287 129.205 43.942C129.523 43.746 129.77 43.4847 129.947 43.158C130.125 42.822 130.213 42.4393 130.213 42.01ZM136.155 48.534C135.595 48.534 135.096 48.464 134.657 48.324C134.228 48.184 133.808 47.974 133.397 47.694V45.86C133.817 46.1307 134.209 46.322 134.573 46.434C134.946 46.5553 135.352 46.616 135.791 46.616C136.183 46.616 136.524 46.532 136.813 46.364C137.112 46.196 137.359 45.888 137.555 45.44L140.747 38.02H143.505L139.599 46.252C139.338 46.812 139.025 47.26 138.661 47.596C138.297 47.932 137.9 48.17 137.471 48.31C137.051 48.4593 136.612 48.534 136.155 48.534ZM136.463 45.37L133.005 38.02H135.861L138.969 45.37H136.463ZM148.369 35.5H156.461V37.488H149.167L150.231 36.984L149.643 40.932H148.971C149.176 40.5867 149.456 40.2693 149.811 39.98C150.175 39.6907 150.618 39.4573 151.141 39.28C151.663 39.1027 152.27 39.014 152.961 39.014C153.857 39.014 154.627 39.1633 155.271 39.462C155.915 39.7607 156.409 40.1713 156.755 40.694C157.109 41.2167 157.287 41.8187 157.287 42.5C157.287 43.2187 157.086 43.858 156.685 44.418C156.283 44.978 155.705 45.4213 154.949 45.748C154.202 46.0653 153.306 46.224 152.261 46.224C151.234 46.224 150.343 46.0747 149.587 45.776C148.831 45.4773 148.238 45.0713 147.809 44.558C147.379 44.0353 147.127 43.4567 147.053 42.822H149.685C149.787 43.2327 150.058 43.5593 150.497 43.802C150.945 44.0447 151.533 44.166 152.261 44.166C152.755 44.166 153.18 44.1007 153.535 43.97C153.889 43.83 154.165 43.634 154.361 43.382C154.557 43.13 154.655 42.8313 154.655 42.486C154.655 42.1593 154.566 41.87 154.389 41.618C154.221 41.366 153.964 41.17 153.619 41.03C153.283 40.89 152.863 40.82 152.359 40.82C151.939 40.82 151.561 40.8667 151.225 40.96C150.898 41.0533 150.609 41.1747 150.357 41.324C150.114 41.4733 149.913 41.6273 149.755 41.786H147.487L148.369 35.5ZM164.242 46.224C163.057 46.224 162.03 45.9953 161.162 45.538C160.294 45.0807 159.622 44.446 159.146 43.634C158.67 42.8127 158.432 41.8513 158.432 40.75C158.432 39.658 158.67 38.7013 159.146 37.88C159.622 37.0587 160.294 36.4193 161.162 35.962C162.03 35.5047 163.057 35.276 164.242 35.276C165.418 35.276 166.44 35.5047 167.308 35.962C168.176 36.4193 168.848 37.0587 169.324 37.88C169.8 38.692 170.038 39.6487 170.038 40.75C170.038 41.842 169.8 42.7987 169.324 43.62C168.848 44.4413 168.176 45.0807 167.308 45.538C166.44 45.9953 165.418 46.224 164.242 46.224ZM164.242 44.068C165.241 44.068 166.016 43.7787 166.566 43.2C167.126 42.6213 167.406 41.8047 167.406 40.75C167.406 39.6953 167.126 38.8787 166.566 38.3C166.016 37.7213 165.241 37.432 164.242 37.432C163.244 37.432 162.464 37.7213 161.904 38.3C161.344 38.8787 161.064 39.6953 161.064 40.75C161.064 41.8047 161.344 42.6213 161.904 43.2C162.464 43.7787 163.244 44.068 164.242 44.068ZM177.08 46.224C175.895 46.224 174.868 45.9953 174 45.538C173.132 45.0807 172.46 44.446 171.984 43.634C171.508 42.8127 171.27 41.8513 171.27 40.75C171.27 39.658 171.508 38.7013 171.984 37.88C172.46 37.0587 173.132 36.4193 174 35.962C174.868 35.5047 175.895 35.276 177.08 35.276C178.256 35.276 179.278 35.5047 180.146 35.962C181.014 36.4193 181.686 37.0587 182.162 37.88C182.638 38.692 182.876 39.6487 182.876 40.75C182.876 41.842 182.638 42.7987 182.162 43.62C181.686 44.4413 181.014 45.0807 180.146 45.538C179.278 45.9953 178.256 46.224 177.08 46.224ZM177.08 44.068C178.079 44.068 178.854 43.7787 179.404 43.2C179.964 42.6213 180.244 41.8047 180.244 40.75C180.244 39.6953 179.964 38.8787 179.404 38.3C178.854 37.7213 178.079 37.432 177.08 37.432C176.082 37.432 175.302 37.7213 174.742 38.3C174.182 38.8787 173.902 39.6953 173.902 40.75C173.902 41.8047 174.182 42.6213 174.742 43.2C175.302 43.7787 176.082 44.068 177.08 44.068ZM186.88 44.964V37.124H188.784V44.964H186.88ZM183.912 41.996V40.092H191.752V41.996H183.912ZM205.865 42.682C205.791 43.382 205.529 43.998 205.081 44.53C204.643 45.062 204.073 45.4773 203.373 45.776C202.683 46.0747 201.903 46.224 201.035 46.224C200.074 46.224 199.225 46.0467 198.487 45.692C197.75 45.3373 197.176 44.8427 196.765 44.208C196.355 43.5733 196.149 42.8407 196.149 42.01C196.149 41.1793 196.355 40.4467 196.765 39.812C197.176 39.1773 197.75 38.6827 198.487 38.328C199.225 37.9733 200.074 37.796 201.035 37.796C201.903 37.796 202.683 37.9453 203.373 38.244C204.073 38.5427 204.643 38.958 205.081 39.49C205.529 40.0127 205.791 40.6287 205.865 41.338H203.275C203.173 40.8247 202.916 40.4327 202.505 40.162C202.104 39.8913 201.614 39.756 201.035 39.756C200.578 39.756 200.177 39.8447 199.831 40.022C199.495 40.1993 199.234 40.456 199.047 40.792C198.861 41.128 198.767 41.534 198.767 42.01C198.767 42.486 198.861 42.892 199.047 43.228C199.234 43.564 199.495 43.8207 199.831 43.998C200.177 44.1753 200.578 44.264 201.035 44.264C201.623 44.264 202.118 44.124 202.519 43.844C202.921 43.5547 203.173 43.1673 203.275 42.682H205.865ZM211.717 46.224C210.709 46.224 209.827 46.0467 209.071 45.692C208.315 45.3373 207.727 44.8427 207.307 44.208C206.887 43.5733 206.677 42.8407 206.677 42.01C206.677 41.17 206.887 40.4373 207.307 39.812C207.727 39.1773 208.315 38.6827 209.071 38.328C209.836 37.9733 210.718 37.796 211.717 37.796C212.725 37.796 213.607 37.9733 214.363 38.328C215.128 38.6827 215.721 39.1773 216.141 39.812C216.561 40.4373 216.771 41.17 216.771 42.01C216.771 42.85 216.561 43.5873 216.141 44.222C215.721 44.8473 215.128 45.3373 214.363 45.692C213.607 46.0467 212.725 46.224 211.717 46.224ZM211.717 44.264C212.23 44.264 212.664 44.1753 213.019 43.998C213.383 43.8113 213.658 43.55 213.845 43.214C214.041 42.878 214.139 42.4767 214.139 42.01C214.139 41.5433 214.041 41.142 213.845 40.806C213.658 40.47 213.383 40.2133 213.019 40.036C212.664 39.8493 212.23 39.756 211.717 39.756C211.222 39.756 210.793 39.8493 210.429 40.036C210.065 40.2133 209.785 40.47 209.589 40.806C209.393 41.142 209.295 41.5433 209.295 42.01C209.295 42.4767 209.393 42.878 209.589 43.214C209.785 43.55 210.065 43.8113 210.429 43.998C210.793 44.1753 211.222 44.264 211.717 44.264ZM217.642 38.02H220.232L220.75 41.128V46H218.146V40.736L217.642 38.02ZM223.55 37.796C224.278 37.796 224.894 37.95 225.398 38.258C225.911 38.5567 226.298 38.986 226.56 39.546C226.83 40.106 226.966 40.7733 226.966 41.548V46H224.362V41.94C224.362 41.2773 224.217 40.778 223.928 40.442C223.638 40.0967 223.214 39.924 222.654 39.924C222.262 39.924 221.921 40.0173 221.632 40.204C221.352 40.3813 221.132 40.638 220.974 40.974C220.824 41.3007 220.75 41.6927 220.75 42.15L219.924 41.716C220.026 40.8667 220.246 40.1527 220.582 39.574C220.927 38.9953 221.352 38.5567 221.856 38.258C222.369 37.95 222.934 37.796 223.55 37.796ZM229.752 37.796C230.48 37.796 231.1 37.95 231.614 38.258C232.127 38.5567 232.514 38.986 232.776 39.546C233.046 40.106 233.182 40.7733 233.182 41.548V46H230.578V41.94C230.578 41.2773 230.433 40.778 230.144 40.442C229.854 40.0967 229.43 39.924 228.87 39.924C228.478 39.924 228.137 40.0173 227.848 40.204C227.568 40.3813 227.348 40.638 227.19 40.974C227.04 41.3007 226.966 41.6927 226.966 42.15L226.14 41.716C226.242 40.8667 226.462 40.1527 226.798 39.574C227.134 38.9953 227.558 38.5567 228.072 38.258C228.585 37.95 229.145 37.796 229.752 37.796ZM234.754 38.02H237.344V40.428L237.246 40.764V42.836L237.344 43.452V48.31H234.754V38.02ZM236.49 42.01C236.63 41.1513 236.896 40.4093 237.288 39.784C237.68 39.1587 238.175 38.6733 238.772 38.328C239.379 37.9733 240.051 37.796 240.788 37.796C241.572 37.796 242.258 37.9733 242.846 38.328C243.443 38.6827 243.91 39.1773 244.246 39.812C244.582 40.4373 244.75 41.17 244.75 42.01C244.75 42.85 244.582 43.5873 244.246 44.222C243.91 44.8473 243.443 45.3373 242.846 45.692C242.258 46.0467 241.572 46.224 240.788 46.224C240.041 46.224 239.369 46.0513 238.772 45.706C238.184 45.3513 237.694 44.8613 237.302 44.236C236.91 43.6013 236.639 42.8593 236.49 42.01ZM242.118 42.01C242.118 41.5807 242.029 41.2027 241.852 40.876C241.675 40.54 241.427 40.2787 241.11 40.092C240.802 39.896 240.447 39.798 240.046 39.798C239.635 39.798 239.243 39.896 238.87 40.092C238.497 40.2787 238.17 40.54 237.89 40.876C237.619 41.2027 237.409 41.5807 237.26 42.01C237.409 42.4393 237.619 42.822 237.89 43.158C238.17 43.4847 238.497 43.746 238.87 43.942C239.243 44.1287 239.635 44.222 240.046 44.222C240.447 44.222 240.802 44.1287 241.11 43.942C241.427 43.746 241.675 43.4847 241.852 43.158C242.029 42.822 242.118 42.4393 242.118 42.01ZM253.313 46L252.963 43.102L253.341 42.01L252.963 40.932L253.313 38.02H256.015L255.525 42.01L256.015 46H253.313ZM253.957 42.01C253.817 42.8593 253.551 43.6013 253.159 44.236C252.767 44.8613 252.272 45.3513 251.675 45.706C251.077 46.0513 250.405 46.224 249.659 46.224C248.875 46.224 248.184 46.0467 247.587 45.692C246.999 45.3373 246.537 44.8473 246.201 44.222C245.865 43.5873 245.697 42.85 245.697 42.01C245.697 41.17 245.865 40.4373 246.201 39.812C246.537 39.1773 246.999 38.6827 247.587 38.328C248.184 37.9733 248.875 37.796 249.659 37.796C250.405 37.796 251.077 37.9733 251.675 38.328C252.272 38.6733 252.767 39.1587 253.159 39.784C253.56 40.4093 253.826 41.1513 253.957 42.01ZM248.329 42.01C248.329 42.4393 248.417 42.822 248.595 43.158C248.772 43.4847 249.015 43.746 249.323 43.942C249.64 44.1287 250.004 44.222 250.415 44.222C250.825 44.222 251.213 44.1287 251.577 43.942C251.95 43.746 252.277 43.4847 252.557 43.158C252.837 42.822 253.047 42.4393 253.187 42.01C253.047 41.5807 252.837 41.2027 252.557 40.876C252.277 40.54 251.95 40.2787 251.577 40.092C251.213 39.896 250.825 39.798 250.415 39.798C250.004 39.798 249.64 39.896 249.323 40.092C249.015 40.2787 248.772 40.54 248.595 40.876C248.417 41.2027 248.329 41.5807 248.329 42.01ZM257.112 38.02H259.702L260.22 41.128V46H257.616V40.736L257.112 38.02ZM263.202 37.796C263.968 37.796 264.616 37.95 265.148 38.258C265.69 38.5567 266.1 38.986 266.38 39.546C266.67 40.106 266.814 40.7733 266.814 41.548V46H264.21V41.94C264.21 41.2773 264.047 40.778 263.72 40.442C263.394 40.0967 262.927 39.924 262.32 39.924C261.891 39.924 261.518 40.0173 261.2 40.204C260.892 40.3813 260.65 40.638 260.472 40.974C260.304 41.3007 260.22 41.6927 260.22 42.15L259.394 41.716C259.497 40.8667 259.726 40.1527 260.08 39.574C260.444 38.9953 260.892 38.5567 261.424 38.258C261.966 37.95 262.558 37.796 263.202 37.796ZM268.387 37.908L269.675 38.174L270.977 37.908V46H268.387V37.908ZM269.689 37.18C269.232 37.18 268.858 37.0633 268.569 36.83C268.28 36.5873 268.135 36.27 268.135 35.878C268.135 35.4767 268.28 35.1593 268.569 34.926C268.858 34.6927 269.232 34.576 269.689 34.576C270.156 34.576 270.529 34.6927 270.809 34.926C271.089 35.1593 271.229 35.4767 271.229 35.878C271.229 36.27 271.089 36.5873 270.809 36.83C270.529 37.0633 270.156 37.18 269.689 37.18ZM277.231 46.224C276.279 46.224 275.425 46.0467 274.669 45.692C273.922 45.3373 273.334 44.8427 272.905 44.208C272.475 43.5733 272.261 42.8313 272.261 41.982C272.261 41.1513 272.466 40.4233 272.877 39.798C273.287 39.1727 273.852 38.6827 274.571 38.328C275.299 37.9733 276.12 37.796 277.035 37.796C277.968 37.796 278.771 38.0013 279.443 38.412C280.115 38.8227 280.633 39.4013 280.997 40.148C281.361 40.8947 281.543 41.772 281.543 42.78H274.347V41.142H280.115L279.177 41.73C279.149 41.2913 279.041 40.9227 278.855 40.624C278.677 40.316 278.439 40.0827 278.141 39.924C277.842 39.756 277.487 39.672 277.077 39.672C276.629 39.672 276.241 39.7607 275.915 39.938C275.588 40.1153 275.331 40.3627 275.145 40.68C274.967 40.9973 274.879 41.366 274.879 41.786C274.879 42.318 274.995 42.7707 275.229 43.144C275.471 43.5173 275.817 43.802 276.265 43.998C276.722 44.194 277.277 44.292 277.931 44.292C278.528 44.292 279.125 44.2127 279.722 44.054C280.32 43.886 280.857 43.6527 281.333 43.354V45.048C280.791 45.4213 280.171 45.7107 279.471 45.916C278.78 46.1213 278.033 46.224 277.231 46.224ZM291.826 43.438C291.826 44.0353 291.649 44.544 291.294 44.964C290.949 45.3747 290.44 45.6873 289.768 45.902C289.096 46.1167 288.279 46.224 287.318 46.224C286.338 46.224 285.479 46.1027 284.742 45.86C284.005 45.6173 283.431 45.2767 283.02 44.838C282.609 44.3993 282.39 43.8907 282.362 43.312H285.008C285.064 43.5453 285.195 43.7507 285.4 43.928C285.615 44.1053 285.89 44.2407 286.226 44.334C286.562 44.418 286.959 44.46 287.416 44.46C288.032 44.46 288.499 44.3947 288.816 44.264C289.133 44.1333 289.292 43.9373 289.292 43.676C289.292 43.48 289.175 43.3307 288.942 43.228C288.718 43.1253 288.312 43.0507 287.724 43.004L286.268 42.892C285.353 42.8267 284.625 42.682 284.084 42.458C283.543 42.234 283.155 41.9493 282.922 41.604C282.698 41.2587 282.586 40.8713 282.586 40.442C282.586 39.854 282.768 39.364 283.132 38.972C283.505 38.58 284.019 38.286 284.672 38.09C285.325 37.894 286.091 37.796 286.968 37.796C287.845 37.796 288.625 37.9127 289.306 38.146C289.997 38.3793 290.547 38.7013 290.958 39.112C291.378 39.5227 291.616 40.0033 291.672 40.554H289.026C288.989 40.3673 288.886 40.1947 288.718 40.036C288.559 39.8773 288.326 39.7513 288.018 39.658C287.719 39.5553 287.327 39.504 286.842 39.504C286.291 39.504 285.871 39.5647 285.582 39.686C285.293 39.8073 285.148 39.9847 285.148 40.218C285.148 40.3953 285.237 40.5353 285.414 40.638C285.591 40.7407 285.927 40.8153 286.422 40.862L288.312 41.002C289.208 41.0767 289.908 41.2213 290.412 41.436C290.925 41.6413 291.289 41.912 291.504 42.248C291.719 42.584 291.826 42.9807 291.826 43.438Z" fill="white"/>
<defs>
<clipPath id="clip0_4007_292">
<rect width="38" height="38" fill="white" transform="matrix(1 0 0 -1 0 43.5)"/>
</clipPath>
</defs>
</svg>
