<svg width="45" height="48" viewBox="0 0 45 48" fill="none" xmlns="http://www.w3.org/2000/svg">
<path d="M43.5805 45.7463H43.5325V17.8382L43.4846 17.5984L42.9571 16.975L37.1069 15.7283V4.21978V4.07592L36.6274 3.40459L20.8512 0L7.85619 2.49351L7.61643 2.54146C7.45659 2.63736 7.32872 2.73326 7.23282 2.82917V2.87712C7.13691 3.00499 7.07298 3.11688 7.04101 3.21279L6.99306 12.3716L2.48557 13.2348L2.29376 13.3307C2.16588 13.3946 2.054 13.4745 1.95809 13.5704L1.91014 13.6184C1.81424 13.7463 1.7503 13.8741 1.71833 14.002L1.67038 45.7463C1.3507 45.7463 1.07897 45.8581 0.855196 46.0819C0.631419 46.3057 0.519531 46.5694 0.519531 46.8731C0.519531 47.1768 0.631419 47.4406 0.855196 47.6643C1.07897 47.8881 1.3507 48 1.67038 48H43.5805C43.8682 48 44.1239 47.8881 44.3477 47.6643C44.5715 47.4406 44.6834 47.1768 44.6834 46.8731C44.6834 46.5694 44.5715 46.3057 44.3477 46.0819C44.1239 45.8581 43.8682 45.7463 43.5805 45.7463ZM20.3237 14.4815C20.3877 14.5135 20.4836 14.5295 20.6114 14.5295L41.2788 18.8931V22.6334L15.4326 17.2148V13.4266L20.3237 14.4815ZM41.2788 28.4835L15.4326 23.0649V19.0849L41.2788 24.5514V28.4835ZM41.2788 30.4016V34.3337L15.4326 28.9151V24.983L41.2788 30.4016ZM15.4326 30.8332L41.2788 36.2038V40.1838L15.4326 34.8132V30.8332ZM41.2788 42.1019V45.7463H15.4326V36.6833L41.2788 42.1019ZM21.8102 12.4675V2.49351L34.8532 5.22677V15.2008L21.8102 12.4675ZM9.19885 4.50749L19.5565 2.49351V12.036L14.4736 10.9331H14.1859L9.2468 11.8921V4.50749H9.19885ZM3.92413 15.2488L8.14391 14.4336C8.27178 14.4016 8.38367 14.3696 8.47957 14.3377L13.1789 13.4266V17.2148L5.5545 18.7972C5.29875 18.8292 5.10694 18.957 4.97907 19.1808C4.8512 19.4046 4.81124 19.6284 4.85919 19.8521C4.90714 20.0759 5.01104 20.2597 5.17088 20.4036C5.33072 20.5475 5.52253 20.6194 5.7463 20.6194L5.93811 20.5714L13.1309 19.0849V23.0649L5.5545 24.6474C5.29875 24.6793 5.09895 24.8072 4.9551 25.031C4.81124 25.2547 4.76329 25.4785 4.81124 25.7023C4.85919 25.9261 4.97108 26.1099 5.1469 26.2537C5.32273 26.3976 5.52253 26.4695 5.7463 26.4695H5.93811L13.1309 24.983V28.9151L5.5545 30.4975C5.29875 30.5614 5.09895 30.6973 4.9551 30.9051C4.81124 31.1129 4.76329 31.3367 4.81124 31.5764C4.85919 31.8162 4.97108 32 5.1469 32.1279C5.32273 32.2557 5.52253 32.3197 5.7463 32.3197H5.93811L13.1309 30.8332V34.8132L5.5545 36.3477C5.29875 36.4116 5.09895 36.5475 4.9551 36.7552C4.81124 36.963 4.76329 37.1868 4.81124 37.4266C4.85919 37.6663 4.97108 37.8581 5.1469 38.002C5.32273 38.1459 5.52253 38.2178 5.7463 38.2178L5.93811 38.1698L13.1789 36.6833V45.7463H3.92413V15.2488ZM32.5035 8.77522L24.5435 7.14486C24.2878 7.08092 24.056 7.12088 23.8482 7.26474C23.6404 7.40859 23.5125 7.60839 23.4646 7.86414C23.4166 8.11988 23.4646 8.35165 23.6084 8.55944C23.7523 8.76723 23.9521 8.9031 24.2078 8.96703L32.1199 10.5974H32.3117C32.5355 10.5974 32.7353 10.5335 32.9111 10.4056C33.087 10.2777 33.1989 10.0939 33.2468 9.85415C33.2948 9.61438 33.2468 9.39061 33.1029 9.18282C32.9591 8.97503 32.7593 8.83916 32.5035 8.77522Z" fill="white"/>
</svg>
